<svg xmlns="http://www.w3.org/2000/svg" viewBox="0 0 240 240">
    <path
        d="M42.5,3h155A42.46,42.46,0,0,1,240,45.42V194.5A42.46,42.46,0,0,1,197.58,237H42.5A42.46,42.46,0,0,1,0,194.58V45.5A42.46,42.46,0,0,1,42.42,3Z"
        transform="translate(0 -3)" style="fill:#2b0c0a"
    />
    <path
        d="M193,138.5c-11.1-11.8-41.8-7-49-5.8a125.11,125.11,0,0,1-20.5-27,120.31,120.31,0,0,0,7-35.4c0-10.8-4.3-22.4-16.3-22.4a12.17,12.17,0,0,0-10.1,5.9c-5.1,8.8-3.1,27,5.1,45.4-4.8,13.5-11.7,33-20.8,48.8-12.3,4.9-38.4,16.9-40.9,30.2a11.24,11.24,0,0,0,3.6,10.6,15.18,15.18,0,0,0,10.6,3.8c15.7,0,31.4-21.8,42-40.5a266.44,266.44,0,0,1,37.4-9.8C157.7,156.8,172.5,159,180,159c10.2,0,14-4.4,15.4-8.1A12.51,12.51,0,0,0,193,138.5Zm-10.8,7.6c-.5,2.9-4.2,5.8-11.1,4.3a55.48,55.48,0,0,1-21.8-11c5.4-.9,18-2.1,26.9-.4C179.4,139.6,183.1,141.4,182.2,146.1ZM110.6,57.6a4,4,0,0,1,3.5-2.2c3.8,0,4.6,4.6,4.6,8.4a116.72,116.72,0,0,1-5,26.7C107.3,73.5,108.2,61.7,110.6,57.6Zm-.9,83.1a249.67,249.67,0,0,0,9.9-23.8,126.38,126.38,0,0,0,13.6,17.8A226,226,0,0,0,109.7,140.7ZM84.6,157.9c-10.1,16.2-20,26.4-25.8,26.4a4.11,4.11,0,0,1-2.6-.9,3.73,3.73,0,0,1-1.3-3.7C56,173.9,67.5,165.5,84.6,157.9Z"
        transform="translate(0 -3)" style="fill:#e82803"
    />
</svg>
