<svg xmlns="http://www.w3.org/2000/svg" viewBox="0 0 240 240">
    <path
        d="M42.5,3h155A42.46,42.46,0,0,1,240,45.42V194.5A42.46,42.46,0,0,1,197.58,237H42.5A42.46,42.46,0,0,1,0,194.58V45.5A42.46,42.46,0,0,1,42.42,3Z"
        transform="translate(0 -3)"
        style="fill:#1f0040"
    />
    <path
        d="M96.4,143H59.2l-7.6,23.6a1.75,1.75,0,0,1-1.9,1.4H30.9c-1.1,0-1.4-.6-1.1-1.8L62,73.9c.3-1,.6-1.9,1-3.1a35.41,35.41,0,0,0,.6-6.5,1,1,0,0,1,.8-1.1H90.3c.7,0,1.2.3,1.3.8l36.5,102.5c.3,1.1,0,1.6-1,1.6H106.2a1.51,1.51,0,0,1-1.6-1.1ZM65,123.1H90.4c-.6-2.1-1.4-4.6-2.3-7.2s-1.8-5.6-2.7-8.6-1.9-6.1-2.9-9.2-1.9-6-2.7-8.9-1.5-5.4-2.2-7.8h-.2A122.39,122.39,0,0,1,74,94.3c-1.5,4.8-3,9.8-4.6,14.8C68.1,114.2,66.5,118.9,65,123.1Z"
        transform="translate(0 -3)"
        style="fill:#d291ff"
    />
    <path
        d="M187.4,133.8H155.7a22.08,22.08,0,0,0,3.1,8.9,15.82,15.82,0,0,0,7.3,6,31.07,31.07,0,0,0,12.8,2.5,59.59,59.59,0,0,0,10.4-1.1,37.48,37.48,0,0,0,8.9-2.3c.5-.4.8-.2.8.8v15.3a4.86,4.86,0,0,1-.2,1.2,2.34,2.34,0,0,1-.7.7,43.17,43.17,0,0,1-10,3,67.67,67.67,0,0,1-14.2,1.2c-7.6,0-14-1.2-19.2-3.5a33.67,33.67,0,0,1-12.6-9.5,36.68,36.68,0,0,1-6.9-13.1,51.82,51.82,0,0,1,.4-30.5,40.67,40.67,0,0,1,7.5-13.7,36.13,36.13,0,0,1,12.1-9.5c4.7-2.3,10.3-3.1,16.7-3.1a36.1,36.1,0,0,1,15.5,3.1,27.54,27.54,0,0,1,10.5,8,36.66,36.66,0,0,1,6,11.4,39.47,39.47,0,0,1,1.9,12.2c0,2.4-.1,4.5-.2,6.4s-.3,3.3-.4,4.2a1.5,1.5,0,0,1-1.4,1.3c-.6,0-1.7.1-3.3.2a46.85,46.85,0,0,1-5.8.3C192.4,134.2,190,133.8,187.4,133.8Zm-31.7-14.6h21.1c2.6,0,4.5,0,5.7-.1a4.89,4.89,0,0,0,2.3-.8v-1a11.61,11.61,0,0,0-.6-3.7,13.25,13.25,0,0,0-13-9.2,14.1,14.1,0,0,0-13.3,7.6A20.76,20.76,0,0,0,155.7,119.2Z"
        transform="translate(0 -3)"
        style="fill:#d291ff"
    />
</svg>
