<svg xmlns="http://www.w3.org/2000/svg" viewBox="0 0 240 240">
    <path
        d="M42.5,3h155A42.46,42.46,0,0,1,240,45.42V194.5A42.46,42.46,0,0,1,197.58,237H42.5A42.46,42.46,0,0,1,0,194.58V45.5A42.46,42.46,0,0,1,42.42,3Z"
        transform="translate(0 -3)"
        style="fill:#260600"
    />
    <path
        d="M97,143H59.9l-7.6,23.5a1.75,1.75,0,0,1-1.9,1.4h-19c-1.1,0-1.4-.6-1.1-1.8L62.6,73.8c.3-1,.6-1.8,1-3.1a35.41,35.41,0,0,0,.6-6.5,1,1,0,0,1,.8-1.1H91c.8,0,1.2.3,1.3.8l36.4,102.3c.3,1.1,0,1.6-1,1.6H106.8a1.51,1.51,0,0,1-1.6-1.1ZM65.7,123.1H91.1c-.6-2.1-1.4-4.6-2.3-7.2s-1.8-5.6-2.7-8.6-1.9-6.1-2.9-9.2-1.9-6-2.7-8.9-1.5-5.4-2.2-7.8h-.2a122.39,122.39,0,0,1-3.4,12.9c-1.5,4.8-3,9.8-4.6,14.8C68.7,114.2,67.2,118.9,65.7,123.1Z"
        transform="translate(0 -3)"
        style="fill:#ff4a19"
    />
    <path
        d="M140,166.4V107c0-1.8,0-3.9-.1-6.1s-.1-4.4-.2-6.4-.2-3.9-.3-5.1a1,1,0,0,1,.2-1,1.68,1.68,0,0,1,1-.3h16.1a4.17,4.17,0,0,1,1.6.3,1.54,1.54,0,0,1,.8,1.1c.2.6.5,1.4.7,2.2a18.43,18.43,0,0,1,.6,3.3A33.18,33.18,0,0,1,171,88.8a38.32,38.32,0,0,1,12.1-2,29.73,29.73,0,0,1,9.4,1.5,24,24,0,0,1,15.2,14.8c1.6,4.1,2.2,9.5,2.2,16v47.3c0,1-.4,1.4-1.3,1.4l-18.8.2a1.38,1.38,0,0,1-1.59-1.13s0-.05,0-.07V121.6a23.49,23.49,0,0,0-1.9-8.7,11,11,0,0,0-10.9-6.8,19.78,19.78,0,0,0-7.6,1.4,21,21,0,0,0-6,3.8v55.2c0,1-.4,1.4-1.3,1.4h-19a1.25,1.25,0,0,1-1.4-1.06v0C139.9,166.6,139.9,166.5,140,166.4Z"
        transform="translate(0 -3)"
        style="fill:#ff4a19"
    />
</svg>
