<svg xmlns="http://www.w3.org/2000/svg" viewBox="0 0 240 240">
    <path
        d="M42.5,3h155A42.46,42.46,0,0,1,240,45.42V194.5A42.46,42.46,0,0,1,197.58,237H42.5A42.46,42.46,0,0,1,0,194.58V45.5A42.46,42.46,0,0,1,42.42,3Z"
        transform="translate(0 -3)"
        style="fill:#002620"
    />
    <path
        d="M94.26,143H57.1l-7.58,23.59a1.73,1.73,0,0,1-1.87,1.4H28.83c-1.12,0-1.4-.56-1.12-1.78l32.2-92.48a31,31,0,0,1,1-3.28,28.54,28.54,0,0,0,.84-6.37A1,1,0,0,1,62.62,63H88.55c.66,0,1.22.28,1.31.84l36.32,102.59c.28,1.12,0,1.59-1,1.59H104.27a1.5,1.5,0,0,1-1.59-1.12ZM62.9,123.09H88.27c-.56-2.06-1.4-4.59-2.34-7.21s-1.78-5.62-2.71-8.61-1.87-6.08-2.9-9.17-1.87-6-2.71-8.89-1.5-5.43-2.25-7.77h-.19A131.12,131.12,0,0,1,71.8,94.36c-1.5,4.77-3,9.83-4.59,14.79A138.76,138.76,0,0,1,62.9,123.1Z"
        transform="translate(0 -3)"
        style="fill:#00e4bb"
    />
    <path
        d="M202.84,89.21v61.31c0,2.71,0,5,.09,7.21s.19,3.93.28,5.52.28,2.53.37,3.56-.28,1.31-1.12,1.31H185.34a1.76,1.76,0,0,1-1.87-1.12l-.56-2.53a7.5,7.5,0,0,1-.19-2.06,28.5,28.5,0,0,1-11.33,6.18,40.33,40.33,0,0,1-11.14,1.5,32.58,32.58,0,0,1-10.86-1.68,21.33,21.33,0,0,1-8.52-5.52,24.91,24.91,0,0,1-5.62-9.73,45.43,45.43,0,0,1-2-14.23V89.3a1.16,1.16,0,0,1,1-1.31H153.7a1.15,1.15,0,0,1,1.3,1v47.3c0,4.4,1,7.86,2.9,10.39s5.8,3.84,10.3,3.84a19,19,0,0,0,6.8-1.2,23.6,23.6,0,0,0,6.27-3.28V89.21c0-.66.47-1.12,1.4-1.12h19.1a1,1,0,0,1,1.12.84A.31.31,0,0,0,202.84,89.21Z"
        transform="translate(0 -3)"
        style="fill:#00e4bb"
    />
</svg>
