<svg xmlns="http://www.w3.org/2000/svg" viewBox="0 0 240 240">
    <path
        d="M42.5,3h155A42.46,42.46,0,0,1,240,45.42V194.5A42.46,42.46,0,0,1,197.58,237H42.5A42.46,42.46,0,0,1,0,194.58V45.5A42.46,42.46,0,0,1,42.42,3Z"
        transform="translate(0 -3)"
        style="fill:#261c00"
    />
    <path
        d="M55.1,167.2,55,65c0-1,.3-1.5,1-1.6,1.8-.1,4.6-.2,8.4-.2s7.4-.1,11.8-.2,8.4-.1,12.1-.1c8.8,0,16,.6,21.2,2.6a31.45,31.45,0,0,1,12,7.3,23.46,23.46,0,0,1,5.9,9.3,29.56,29.56,0,0,1,1.4,8.9,25.44,25.44,0,0,1-1.9,9.4,21.85,21.85,0,0,1-3.9,6.8,18.17,18.17,0,0,1-4.3,4,34.63,34.63,0,0,1,6.4,4.4,24.84,24.84,0,0,1,6,8,26.1,26.1,0,0,1,2.8,12.2,29.06,29.06,0,0,1-5.6,17.3,34.43,34.43,0,0,1-15.5,11.5,62.07,62.07,0,0,1-24.1,4.3H78.1c-3.4,0-6.2,0-9.1-.1s-5.3-.1-7.4-.2-3.9-.1-5.4-.1C55.4,168.5,55.1,168,55.1,167.2ZM76.8,81.9l.1,22.3H87.4c2.9,0,5.7.1,8.5.2a30.3,30.3,0,0,1,6,.6,16.12,16.12,0,0,0,3.5-4.3,12.15,12.15,0,0,0,1.6-6.2,12.6,12.6,0,0,0-2.4-7.4,13,13,0,0,0-6-4.1,32,32,0,0,0-10.2-1.3H83.7c-1.4,0-2.3,0-3.4.1S78.1,81.9,76.8,81.9Zm.1,41v26.8c1.8.1,3.2.2,5.1.2s4,.1,6.6.1a42.37,42.37,0,0,0,11.7-1.4,15.16,15.16,0,0,0,7.6-4.5,12,12,0,0,0,3.1-7.6,13.25,13.25,0,0,0-2.7-7.6c-1.4-2.1-4-3.9-7.7-4.9a34.7,34.7,0,0,0-4.4-.8,58.13,58.13,0,0,0-5.9-.3Z"
        transform="translate(0 -3)"
        style="fill:#fbb500"
    />
    <path
        d="M148.2,88h17.5a2.25,2.25,0,0,1,2.1,1.6,6.31,6.31,0,0,1,.8,2.3c.2,1,.4,2.1.5,3.1s.2,2.7.2,4A38.41,38.41,0,0,1,180,90c4.3-2.4,8.9-3,14.5-3a1.25,1.25,0,0,1,1.4,1.06V107.7c0,.8-.5,1.1-1.6,1.1a38.77,38.77,0,0,0-10.2.7,41.35,41.35,0,0,0-8.4,2.7,18.9,18.9,0,0,0-5.9,3.7v50.7c0,1-.4,1.4-1.3,1.4h-19a1.38,1.38,0,0,1-1.59-1.13s0-.05,0-.07V111.4c0-2.4,0-4.9-.1-7.5s-.1-5.2-.2-7.8c-.1-2.3-.3-4.7-.6-7a.92.92,0,0,1,.7-1.1h.5Z"
        transform="translate(0 -3)"
        style="fill:#fbb500"
    />
</svg>
