<svg xmlns="http://www.w3.org/2000/svg" viewBox="0 0 240 240">
    <path
        d="M42.5,3h155A42.46,42.46,0,0,1,240,45.42V194.5A42.46,42.46,0,0,1,197.58,237H42.5A42.46,42.46,0,0,1,0,194.58V45.5A42.46,42.46,0,0,1,42.42,3Z"
        transform="translate(0 -3)"
        style="fill:#26003b"
    />
    <path
        d="M114.8,148.3v16.6a2.22,2.22,0,0,1-1.3,2.3,43.55,43.55,0,0,1-9.5,2.2,106.07,106.07,0,0,1-12.6.7,71.26,71.26,0,0,1-17.8-2.2,55.14,55.14,0,0,1-15.4-6.6,45.78,45.78,0,0,1-11.9-10.9,47.46,47.46,0,0,1-7.7-15,63.41,63.41,0,0,1-2.7-19.3c0-10.8,2.4-20.4,7.1-28.6A48.86,48.86,0,0,1,63.1,68.3a65.75,65.75,0,0,1,31.1-7.2c4.2,0,8.3.2,12.5.6a42,42,0,0,1,8.5,1.9,2.09,2.09,0,0,1,.8,1.9V83.6c0,1-.4,1.3-1.1,1a35.5,35.5,0,0,0-9.6-2.9,77.65,77.65,0,0,0-11.8-.9A37,37,0,0,0,75,85.3a29.88,29.88,0,0,0-11.9,12,37.94,37.94,0,0,0-4.2,18.1,39.44,39.44,0,0,0,2,13.2,29.1,29.1,0,0,0,5.6,9.8,28.44,28.44,0,0,0,8,6.6,39.71,39.71,0,0,0,9.6,3.6,41.46,41.46,0,0,0,9.9,1.5,99.17,99.17,0,0,0,10.9-.5,37.28,37.28,0,0,0,8.7-2.2c.4-.3.7-.4,1-.2A1.38,1.38,0,0,1,114.8,148.3Z"
        transform="translate(0 -3)"
        style="fill:#da91ff"
    />
    <path
        d="M151.8,110.3v56.4c0,.9-.4,1.3-1.1,1.3H130.6a1.25,1.25,0,0,1-1.4-1.06V55.4c0-.7.4-1.1,1.3-1.1h20.3a.94.94,0,0,1,1.09.76v.34l.1,38a45.11,45.11,0,0,1,9.3-4.7c3.4-1.2,7.3-1.5,11.8-1.5a32.92,32.92,0,0,1,9.4,1.4,23.44,23.44,0,0,1,8.8,4.7c2.7,2.4,4.6,5.7,6.2,9.8s2.4,9.5,2.4,16v47.4c0,1-.4,1.4-1.3,1.4H179.7a1.38,1.38,0,0,1-1.59-1.13s0-.05,0-.07V121.3a20.78,20.78,0,0,0-1.5-8.5,12.2,12.2,0,0,0-4.2-5.1,13.58,13.58,0,0,0-7.4-1.8,24.37,24.37,0,0,0-7.1,1A25.87,25.87,0,0,0,151.8,110.3Z"
        transform="translate(0 -3)"
        style="fill:#da91ff"
    />
</svg>
