<svg xmlns="http://www.w3.org/2000/svg" viewBox="0 0 240 240">
    <path
        d="M42.5,3h155A42.46,42.46,0,0,1,240,45.42V194.5A42.46,42.46,0,0,1,197.58,237H42.5A42.46,42.46,0,0,1,0,194.58V45.5A42.46,42.46,0,0,1,42.42,3Z"
        transform="translate(0 -3)"
        style="fill:#00261a"
    />
    <path
        d="M35,166.8V64.4a1.21,1.21,0,0,1,1.1-1.3h.1c1.6-.1,4-.2,7.1-.2s6.8-.1,10.9-.2,8.6-.1,13.4-.1c12.9,0,23.6,2.2,32,6.6a45,45,0,0,1,19.1,18.1,54.4,54.4,0,0,1,6.4,26.5,59.6,59.6,0,0,1-3.3,20.5,48.91,48.91,0,0,1-9,15.4,53.73,53.73,0,0,1-13,10.7,56.83,56.83,0,0,1-15.5,6.3,68.36,68.36,0,0,1-16.3,2H56c-4.2,0-8.2,0-11.8-.1s-6.4-.1-8.2-.2C35.3,168.4,35,167.8,35,166.8ZM57.2,82.4v66.7a31,31,0,0,1,3.2.1c1,.1,2,.1,3,.2s2.2.1,3.5.1a40.91,40.91,0,0,0,14.3-2.3,28.58,28.58,0,0,0,11-6.8,30.08,30.08,0,0,0,7.1-11.1,42.58,42.58,0,0,0,2.5-15,37.68,37.68,0,0,0-2.4-14.1,25.58,25.58,0,0,0-7-10.1,27.74,27.74,0,0,0-10.9-6,46.7,46.7,0,0,0-13.9-1.9c-2.1,0-3.9,0-5.4.1A43.88,43.88,0,0,0,57.2,82.4Z"
        transform="translate(0 -3)"
        style="fill:#3cf2a6"
    />
    <path
        d="M134.8,166.9V107c0-1.8,0-3.9-.1-6.1s-.1-4.4-.2-6.4-.2-3.6-.3-4.8a1,1,0,0,1,.2-1,1.68,1.68,0,0,1,1-.3H152a4.17,4.17,0,0,1,1.6.3,1.54,1.54,0,0,1,.8,1.1c.2.6.5,1.4.7,2.2a15.34,15.34,0,0,1,.6,3,33.18,33.18,0,0,1,10.6-6.2,38.32,38.32,0,0,1,12.1-2,29.73,29.73,0,0,1,9.4,1.5A24,24,0,0,1,203,103.1c1.6,4.1,2.4,9.5,2.4,16v47.8c0,1-.4,1.4-1.3,1.4H184.6a1.38,1.38,0,0,1-1.59-1.13s0,0,0-.07V121a20.87,20.87,0,0,0-1.4-8.2,11,11,0,0,0-10.9-6.8,19.78,19.78,0,0,0-7.6,1.4,21,21,0,0,0-6,3.8v55.7c0,1-.4,1.4-1.3,1.4H136.2a1.25,1.25,0,0,1-1.4-1.06v-.34Z"
        transform="translate(0 -3)"
        style="fill:#3cf2a6"
    />
</svg>
