<svg xmlns="http://www.w3.org/2000/svg" viewBox="0 0 240 240">
    <path
        d="M42.5,3h155A42.46,42.46,0,0,1,240,45.42V194.5A42.46,42.46,0,0,1,197.58,237H42.5A42.46,42.46,0,0,1,0,194.58V45.5A42.46,42.46,0,0,1,42.42,3Z"
        transform="translate(0 -3)"
        style="fill:#072600"
    />
    <path
        d="M22.8,166.8V64.4a1.2,1.2,0,0,1,1-1.3h.1c1.5-.1,3.8-.2,6.7-.2s6.4-.1,10.4-.2,8.2-.1,12.7-.1c12.2,0,22.4,2.2,30.4,6.6a43.85,43.85,0,0,1,18.1,18.1c4,7.7,6,16.5,6,26.5a61.77,61.77,0,0,1-3.1,20.5,48.87,48.87,0,0,1-8.6,15.4,52.38,52.38,0,0,1-12.3,10.7,54.81,54.81,0,0,1-14.7,6.3,61.1,61.1,0,0,1-15.4,2H42.8c-4,0-7.8,0-11.2-.1s-6.1-.1-7.8-.2C23.1,168.4,22.8,167.8,22.8,166.8ZM43.9,82.4v66.7c1.1,0,2.1,0,3.1.1s1.9.1,2.8.2,2.1.1,3.3.1a37.52,37.52,0,0,0,13.6-2.3,26.89,26.89,0,0,0,10.5-6.8,30.88,30.88,0,0,0,6.7-11.1,47.47,47.47,0,0,0,2.4-15A39.81,39.81,0,0,0,84,100.2,26.09,26.09,0,0,0,66.9,84a42.18,42.18,0,0,0-13.2-1.9c-2,0-3.7,0-5.1.1S45.6,82.3,43.9,82.4Z"
        transform="translate(0 -3)"
        style="fill:#35fa00"
    />
    <path
        d="M197.8,168.4H179.1a1.37,1.37,0,0,1-1.2-.4,3.39,3.39,0,0,1-.6-1.2c-1.9-8-3.5-15.2-4.8-21.3s-2.4-11.4-3.2-15.7-1.5-7.9-2.1-10.9-1-5.5-1.3-7.6h-.1c-1,4.4-1.9,8.7-2.8,12.8s-1.8,8.3-2.8,12.5-2.1,8.8-3.4,13.8-2.6,10.5-4.1,16.4c-.2,1.1-.7,1.6-1.6,1.6H132.4a2.21,2.21,0,0,1-1.4-.3,4.11,4.11,0,0,1-.7-1.1L110.8,89.7c-.3-.9.1-1.3,1.2-1.3h18.9c.9,0,1.4.3,1.5,1,2,8.8,3.7,16.4,5,22.8s2.4,11.8,3.1,16.3,1.4,8.2,1.9,11,.9,5.2,1.2,7h.3c.2-1.6.4-3.1.7-4.7q.6-2.85,1.5-7.5c.6-3.1,1.3-6.7,2.2-10.9s1.9-9,3.1-14.6S154.1,97,156,89.9a3.29,3.29,0,0,1,.4-1.3c.1-.2.5-.3,1.1-.3h19.6c.6,0,.9.4,1,1.1,1.7,7.3,3.1,13.7,4.3,19.2s2.1,10.4,3,14.7,1.5,7.9,1.9,10.9.9,5.6,1.3,7.7a44,44,0,0,1,.7,5.1h.3c.5-2,.9-4.4,1.3-7.1s.9-5.7,1.6-9.1,1.3-7.1,2.1-11.2,1.7-8.6,2.8-13.7,2.3-10.5,3.7-16.4c.2-.9.6-1.3,1.3-1.3h17.5c.9,0,1.2.5,1,1.4l-21.6,77.1a2.48,2.48,0,0,1-.6,1.1C198.7,168.3,198.3,168.5,197.8,168.4Z"
        transform="translate(0 -3)"
        style="fill:#35fa00"
    />
</svg>
