<svg xmlns="http://www.w3.org/2000/svg" viewBox="0 0 240 240">
    <path
        d="M42.5,3h155A42.46,42.46,0,0,1,240,45.42V194.5A42.46,42.46,0,0,1,197.58,237H42.5A42.46,42.46,0,0,1,0,194.58V45.5A42.46,42.46,0,0,1,42.42,3Z"
        transform="translate(0 -3)"
        style="fill:#1d2600"
    />
    <path
        d="M84.7,127.7v39.4a1.12,1.12,0,0,1-.94,1.29H63.6a1,1,0,0,1-1.17-.79,1,1,0,0,1,.07-.61V64.1c0-1.5.4-2.3,1.1-2.3h63.8a2,2,0,0,1,1.1.2,4.44,4.44,0,0,1,.5,2.2l1.8,17.5a1,1,0,0,1-.2.9,1.44,1.44,0,0,1-1,.4H84.7v24.5h40.2c1,0,1.4.4,1.4,1.1v17.7a1.12,1.12,0,0,1-.94,1.29H125Z"
        transform="translate(0 -3)"
        style="fill:#b6f200"
    />
    <path
        d="M140.5,88.4H158a2.25,2.25,0,0,1,2.1,1.6,6.31,6.31,0,0,1,.8,2.3c.2,1,.4,2.1.5,3.1s.2,2.3.2,3.6a37.12,37.12,0,0,1,10.7-8.6,29.78,29.78,0,0,1,14.9-3.6,1.25,1.25,0,0,1,1.4,1.06V107.8c0,.8-.5,1.1-1.6,1.1a40.77,40.77,0,0,0-18.9,3.4,16.72,16.72,0,0,0-5.4,3.7v51c0,1-.4,1.4-1.3,1.4H142a1.38,1.38,0,0,1-1.59-1.13s0-.05,0-.07V111.4c0-2.4,0-4.9-.1-7.5s-.1-5.2-.2-7.8q-.15-3.3-.6-6.6a.92.92,0,0,1,.7-1.1h0c0-.1.2-.1.3,0Z"
        transform="translate(0 -3)"
        style="fill:#b6f200"
    />
</svg>
