<svg xmlns="http://www.w3.org/2000/svg" viewBox="0 0 240 240">
    <path
        d="M42.5,3h155A42.46,42.46,0,0,1,240,45.42V194.5A42.46,42.46,0,0,1,197.58,237H42.5A42.46,42.46,0,0,1,0,194.58V45.5A42.46,42.46,0,0,1,42.42,3Z"
        transform="translate(0 -3)"
        style="fill:#261300"
    />
    <path
        d="M116.3,143.4H79.1l-7.6,23.5a1.75,1.75,0,0,1-1.9,1.4H50.8c-1.1,0-1.4-.6-1.1-1.8L81.9,73.8c.3-1,.6-2.1,1-3.3a35.41,35.41,0,0,0,.6-6.5,1,1,0,0,1,.8-1.1h25.9c.8,0,1.2.3,1.3.8l36.5,103c.3,1.1,0,1.6-1,1.6H126.1a1.51,1.51,0,0,1-1.6-1.1ZM84.9,123.1h25.4c-.6-2.1-1.4-4.6-2.3-7.2s-1.8-5.6-2.7-8.6-1.9-6.1-2.9-9.2-1.9-6-2.7-8.9-1.5-5.4-2.2-7.8h-.2a122.39,122.39,0,0,1-3.4,12.9c-1.5,4.8-3,9.8-4.6,14.8C87.9,114.2,86.4,118.9,84.9,123.1Z"
        transform="translate(0 -3)"
        style="fill:#ff7c00"
    />
    <path
        d="M169.8,80a12.39,12.39,0,0,1-8.9-3.5,13,13,0,0,1-3.4-9.2,11.77,11.77,0,0,1,3.6-8.9,12.79,12.79,0,0,1,8.9-3.5c3.9,0,6.9,1.2,9.1,3.5a12.6,12.6,0,0,1,3.3,8.9,12.67,12.67,0,0,1-3.5,9.2A11.76,11.76,0,0,1,169.8,80Zm-11.2,86.8v-77c0-1,.4-1.4,1.3-1.4h19.8c.9,0,1.3.5,1.3,1.4v77c0,1.1-.4,1.6-1.3,1.6H160.1a1.4,1.4,0,0,1-1.51-1.28A1.15,1.15,0,0,1,158.6,166.8Z"
        transform="translate(0 -3)"
        style="fill:#ff7c00"
    />
</svg>
