<svg xmlns="http://www.w3.org/2000/svg" viewBox="0 0 240 240">
    <path
        d="M42.5,3h155A42.46,42.46,0,0,1,240,45.42V194.5A42.46,42.46,0,0,1,197.58,237H42.5A42.46,42.46,0,0,1,0,194.58V45.5A42.46,42.46,0,0,1,42.42,3Z"
        transform="translate(0 -3)"
        style="fill:#2b0028"
    />
    <path
        d="M96.5,64.2V166.8c0,1.1-.5,1.6-1.4,1.6H75.6c-.9,0-1.3-.5-1.3-1.6V64.2c0-.9.5-1.3,1.4-1.3H95.2a1.12,1.12,0,0,1,1.29.94.13.13,0,0,1,0,.06Z"
        transform="translate(0 -3)"
        style="fill:#ff5ff8"
    />
    <path
        d="M173.3,149.5v16.6a1.49,1.49,0,0,1-.8,1.4,31,31,0,0,1-8.5,1.9c-3.2.3-6.3.5-9.3.5a47.56,47.56,0,0,1-17.9-3.1,38.38,38.38,0,0,1-13.4-8.7,41,41,0,0,1-8.5-13.2,45.4,45.4,0,0,1-3-16.3,42.31,42.31,0,0,1,5.6-21.7A40,40,0,0,1,133.4,92a50.46,50.46,0,0,1,23.9-5.5,50.34,50.34,0,0,1,9.5.6,51.84,51.84,0,0,1,5.5,1.2,1.85,1.85,0,0,1,.8,1.8l-.2,16.6c0,1-.4,1.3-1.3,1.1a33.6,33.6,0,0,0-5.5-1.4,54.92,54.92,0,0,0-8-.6,28.5,28.5,0,0,0-11.9,2.4,19.57,19.57,0,0,0-8.4,7.2,22.78,22.78,0,0,0-3.1,12.2q0,8.4,3.6,13.2a19.56,19.56,0,0,0,9.2,6.8,32.93,32.93,0,0,0,11.2,2,64,64,0,0,0,7.7-.4,33.05,33.05,0,0,0,5.5-1C172.9,148.4,173.3,148.7,173.3,149.5Z"
        transform="translate(0 -3)"
        style="fill:#ff5ff8"
    />
</svg>
