<svg xmlns="http://www.w3.org/2000/svg" viewBox="0 0 240 240">
    <path
        d="M42.5,3h155A42.46,42.46,0,0,1,240,45.42V194.5A42.46,42.46,0,0,1,197.58,237H42.5A42.46,42.46,0,0,1,0,194.58V45.5A42.46,42.46,0,0,1,42.42,3Z"
        transform="translate(0 -3)"
        style="fill:#2e0013"
    />
    <path
        d="M87.2,64.2V166.8c0,1.1-.5,1.6-1.4,1.6H66.2c-.9,0-1.3-.5-1.3-1.6V64.2c0-.9.5-1.3,1.4-1.3H85.8a1.12,1.12,0,0,1,1.29.94.13.13,0,0,1,0,.06A.37.37,0,0,1,87.2,64.2Z"
        transform="translate(0 -3)"
        style="fill:#ff3f94"
    />
    <path
        d="M144.8,170a49.81,49.81,0,0,1-21.5-4.5,34.86,34.86,0,0,1-15.1-13.6c-3.7-6.1-5.5-13.7-5.5-22.8a41.1,41.1,0,0,1,5.5-21.1,41.53,41.53,0,0,1,15.9-15.5c7-3.9,15.4-5.8,25.3-5.8a18.45,18.45,0,0,1,2.1.1c.9.1,1.9.1,3.1.2V55.4c0-.7.3-1.1,1-1.1h20.3a.9.9,0,0,1,1,.7v95.4c0,1.8.1,3.8.2,6s.3,4.1.4,5.8a1.63,1.63,0,0,1-1,1.6,76.64,76.64,0,0,1-16.3,4.8A87.42,87.42,0,0,1,144.8,170Zm9.8-20V106a27.3,27.3,0,0,0-2.7-.5c-1.1-.1-2.2-.2-3.3-.2a24.75,24.75,0,0,0-11.3,2.6,22.4,22.4,0,0,0-8.5,7.4c-2.2,3.2-3.3,7.5-3.3,12.7a27.83,27.83,0,0,0,1.7,10.3,19.48,19.48,0,0,0,4.5,7.1,17.31,17.31,0,0,0,6.8,4,26,26,0,0,0,8.3,1.3c1.5,0,2.9-.1,4.2-.2A8.65,8.65,0,0,0,154.6,150Z"
        transform="translate(0 -3)"
        style="fill:#ff3f94"
    />
</svg>
