<svg xmlns="http://www.w3.org/2000/svg" viewBox="0 0 240 240">
    <path
        d="M42.5,3h155A42.46,42.46,0,0,1,240,45.42V194.5A42.46,42.46,0,0,1,197.58,237H42.5A42.46,42.46,0,0,1,0,194.58V45.5A42.46,42.46,0,0,1,42.42,3Z"
        transform="translate(0 -3)"
        style="fill:#0a2431"
    />
    <path
        d="M84.2,168.4H27.1c-1,0-1.4-.6-1.4-1.8V64.4c0-1,.4-1.4,1.3-1.4H44.7c.7,0,1,.4,1,1.1v84H87.3c.9,0,1.2.5,1,1.4l-2.6,17.4a1.69,1.69,0,0,1-.6,1.2A1.62,1.62,0,0,1,84.2,168.4Z"
        transform="translate(0 -3)"
        style="fill:#add5ec"
    />
    <path
        d="M98.5,88.4h15.8c.9,0,1.5.5,1.9,1.6a8.75,8.75,0,0,1,.7,2.3c.2,1,.3,2.1.4,3.1s.1,2.3.1,3.6a34.29,34.29,0,0,1,9.6-8.6,25.17,25.17,0,0,1,13.4-3.6c.9,0,1.3.5,1.3,1.4v19.5c0,.8-.5,1.1-1.4,1.1a32.28,32.28,0,0,0-17,3.4,17.59,17.59,0,0,0-4.9,3.7v51c0,1-.4,1.4-1.2,1.4H99.8c-1,0-1.4-.5-1.4-1.6V111.3c0-2.4,0-4.9-.1-7.5s-.1-5.2-.2-7.8q-.15-3.3-.6-6.6a1.5,1.5,0,0,1,.2-.9A1.12,1.12,0,0,1,98.5,88.4Z"
        transform="translate(0 -3)"
        style="fill:#add5ec"
    />
    <path
        d="M212.6,73.6a25.47,25.47,0,0,0-6.7-1.7,87,87,0,0,0-10.2-.6c-9.8,0-18.4,2.1-25.5,6.2A43,43,0,0,0,153.6,95c-3.9,7.4-5.8,16.2-5.8,26a66.14,66.14,0,0,0,2.2,17.6,46.35,46.35,0,0,0,6.4,13.7,39.91,39.91,0,0,0,9.8,9.9,39,39,0,0,0,12.7,6,55,55,0,0,0,14.6,2,69.55,69.55,0,0,0,10.3-.7,31.82,31.82,0,0,0,8.1-2,2.68,2.68,0,0,0,1.5-2.7V149.9a1.74,1.74,0,0,0-.5-1.5,1.2,1.2,0,0,0-1.6.1,33,33,0,0,1-7,1.7,84.29,84.29,0,0,1-8.7.4,29,29,0,0,1-7.8-1.1,29.91,29.91,0,0,1-7.6-3.2,21.93,21.93,0,0,1-6.3-5.8,30.3,30.3,0,0,1-4.4-8.6,38.58,38.58,0,0,1-1.6-11.7,36.78,36.78,0,0,1,3.3-16,25.11,25.11,0,0,1,9.4-10.5,27.72,27.72,0,0,1,14.6-3.8,50.21,50.21,0,0,1,9.4.8,23.51,23.51,0,0,1,7.2,2.4,1.48,1.48,0,0,0,1.3,0,1.72,1.72,0,0,0,.6-1.5V76A2.46,2.46,0,0,0,212.6,73.6Z"
        transform="translate(0 -3)"
        style="fill:#add5ec"
    />
</svg>
