<svg xmlns="http://www.w3.org/2000/svg" viewBox="0 0 240 240">
    <path
        d="M42.5,3h155A42.46,42.46,0,0,1,240,45.42V194.5A42.46,42.46,0,0,1,197.58,237H42.5A42.46,42.46,0,0,1,0,194.58V45.5A42.46,42.46,0,0,1,42.42,3Z"
        transform="translate(0 -3)"
        style="fill:#022326"
    />
    <path
        d="M126,168.4H62.6c-1.1,0-1.6-.6-1.6-1.8V64.4A1.25,1.25,0,0,1,62.06,63h20a.94.94,0,0,1,1.09.76V148.1h46.2c1,0,1.3.5,1.1,1.4l-2.9,17.4a1.74,1.74,0,0,1-.6,1.2A1.68,1.68,0,0,1,126,168.4Z"
        transform="translate(0 -3)"
        style="fill:#3df0f0"
    />
    <path
        d="M142,88.4h17.5a2.25,2.25,0,0,1,2.1,1.6,6.31,6.31,0,0,1,.8,2.3c.2,1,.4,2.1.5,3.1s.2,2.3.2,3.6a37.12,37.12,0,0,1,10.7-8.6,29.78,29.78,0,0,1,14.9-3.6,1.25,1.25,0,0,1,1.4,1.06V107.8c0,.8-.5,1.1-1.6,1.1a40.77,40.77,0,0,0-18.9,3.4,16.72,16.72,0,0,0-5.4,3.7v51c0,1-.4,1.4-1.3,1.4H143.4a1.38,1.38,0,0,1-1.59-1.13s0-.05,0-.07V111.4c0-2.4,0-4.9-.1-7.5s-.1-5.2-.2-7.8q-.15-3.3-.6-6.6a.92.92,0,0,1,.7-1.1h0c.1-.1.2-.1.4,0Z"
        transform="translate(0 -3)"
        style="fill:#3df0f0"
    />
</svg>
