<svg xmlns="http://www.w3.org/2000/svg" viewBox="0 0 240 240">
    <rect width="240" height="231.43" rx="42.49" style="fill:#0b004d" />
    <path
        d="M194.72,132.78H163.48a24.18,24.18,0,0,0,3.23,9.08,16.36,16.36,0,0,0,7.21,5.95,31.3,31.3,0,0,0,12.86,2.73,43.84,43.84,0,0,0,8.86-.7,42.92,42.92,0,0,0,9.28-2.77c.53-.42.79-.16.79.78v15.06a2.3,2.3,0,0,1-.24,1.19,2.32,2.32,0,0,1-.71.72,45,45,0,0,1-10.31,3.41,64.84,64.84,0,0,1-12.84.5,45.36,45.36,0,0,1-18.87-3.44,33.71,33.71,0,0,1-12.37-9.36A36.6,36.6,0,0,1,143.55,143a51,51,0,0,1-2.06-14.35A50.12,50.12,0,0,1,144,113a40.83,40.83,0,0,1,7.37-13.49,35.44,35.44,0,0,1,11.89-9.36,37.32,37.32,0,0,1,16.49-3.41,39.82,39.82,0,0,1,16.12,3.18,27.76,27.76,0,0,1,10.39,8.17,36,36,0,0,1,5.83,11.2,39.68,39.68,0,0,1,1.9,12c0,2.32-.08,4.44-.24,6.34a27.53,27.53,0,0,1-.61,3.36,1.45,1.45,0,0,1-1.43,1.27c-.63,0-1.72.08-3.25.24s-4.26.1-6.53.15S197.26,132.78,194.72,132.78Zm-31.33-12.6h20.77c2.54,0,4.42,0,5.63-.08a12.73,12.73,0,0,0,2.3-.24v-1a26.89,26.89,0,0,0-.33-5.67,13,13,0,0,0-12.84-9,13.77,13.77,0,0,0-13.08,7.45A33.29,33.29,0,0,0,163.39,120.18Z"
        transform="translate(0 -4.29)"
        style="fill:#9e8cff"
    />
    <path
        d="M35.58,65.56a1.06,1.06,0,0,1,1.11-1H64.51a1.5,1.5,0,0,1,1.66,1.11c.7,2.75,1.56,4.74,2.56,8.59S70.81,82.43,72,87.08l3.5,14.27L79,115.54c1.15,4.6,2.14,8.82,3,12.69s1.47,7.05,2,9.59h.15c.4-2.22,1.1-5.19,2.11-8.88s2.16-7.85,3.47-12.45,2.67-9.33,4-14.19,2.67-9.67,4-14.43,2.56-9.18,3.69-13.24,2.08-6.16,2.79-8.91a1.31,1.31,0,0,1,1.36-1.11h27a1.19,1.19,0,0,1,1.35,1v.09L137.54,165a1.08,1.08,0,0,1-.22,1,1.33,1.33,0,0,1-1,.4H116.63a1.21,1.21,0,0,1-.75-.25,1,1,0,0,1-.3-.86c0-5.39,0-10.36-.08-16.28s-.13-11.87-.23-17.84-.1-11.71,0-17.2.15-10.57.15-15.22,0-8.69.08-12.13.07-6,.08-7.69h-.15q-.92,4-2.41,10.39t-3.54,14.43q-2,8-4.37,16.57t-4.52,17q-2.19,8.4-4.22,15.69C95,157.9,93.89,161.51,93,165.21a1.66,1.66,0,0,1-1.66,1.27h-17a1.63,1.63,0,0,1-1.81-1.27c-.9-3.7-1.94-7.31-3.09-12.17s-2.33-9.94-3.54-15.22-2.49-10.7-3.84-16.25-2.64-10.92-3.84-16.1-2.29-10-3.24-14.59-1.85-8.59-2.65-12H52V91.36q0,7.29-.23,16.1t-.45,18.39q-.23,9.6-.53,19.82c-.2,6.82-.45,12.87-.75,19.53,0,.85-.4,1.27-1.2,1.27H31.37a1.92,1.92,0,0,1-1-.24c-.25-.16-.33-.56-.23-1.19Z"
        transform="translate(0 -4.29)"
        style="fill:#9e8cff"
    />
</svg>
