<svg xmlns="http://www.w3.org/2000/svg" viewBox="0 0 240 240">
    <path
        d="M42.5,3h155A42.46,42.46,0,0,1,240,45.42V194.5A42.46,42.46,0,0,1,197.58,237H42.5A42.46,42.46,0,0,1,0,194.58V45.5A42.46,42.46,0,0,1,42.42,3Z"
        transform="translate(0 -3)"
        style="fill:#001d26"
    />
    <path
        d="M54,167.1V64.2c0-.7.3-1.1,1-1.1,1.7,0,3.3,0,5.6-.1s4.9-.1,7.6-.2,5.6-.1,8.7-.2,6.1-.1,9.1-.1c8.2,0,15,1,20.6,3.1A35.68,35.68,0,0,1,120,73.8a31.87,31.87,0,0,1,7.3,11.4,38.45,38.45,0,0,1,2.3,13q0,12.9-6,21.3a34.31,34.31,0,0,1-16.1,12.2c-6.8,2.5-14.3,3.4-22.5,3.4-2.4,0-4,0-5-.1s-2.4-.1-4.3-.1V167a1.25,1.25,0,0,1-1.06,1.4H55.2C54.4,168.4,54,168,54,167.1ZM75.8,82.4V116c1.4.1,2.7.2,3.9.2H85a37.45,37.45,0,0,0,11.5-1.8,17.2,17.2,0,0,0,8.2-5.3c2.1-2.5,3.1-5.9,3.1-10.3a16.48,16.48,0,0,0-2.3-8.9,14.51,14.51,0,0,0-7-5.7,29.35,29.35,0,0,0-11.8-2c-2.6,0-4.9,0-6.8.1a22.46,22.46,0,0,0-4.1.1Z"
        transform="translate(0 -3)"
        style="fill:#00c8ff"
    />
    <path
        d="M192,109.9a35.22,35.22,0,0,0-9.6-3.4,52.79,52.79,0,0,0-11.2-1.3,20.25,20.25,0,0,0-6,.7,5.11,5.11,0,0,0-3.1,2,5.25,5.25,0,0,0-.8,2.7,4.5,4.5,0,0,0,1,2.6,11.28,11.28,0,0,0,3.4,2.7c2.3,1.2,4.7,2.3,7.1,3.3a72.64,72.64,0,0,1,15.4,7.3,23.28,23.28,0,0,1,7.9,8.3,21.52,21.52,0,0,1,2.3,10.3,23.27,23.27,0,0,1-3.9,13.3,25.1,25.1,0,0,1-11.2,8.9c-4.9,2.1-10.9,3.2-18.1,3.2a69,69,0,0,1-13.6-1.3,40.46,40.46,0,0,1-10.2-3.2,2,2,0,0,1-1.1-1.9V146.7a1.08,1.08,0,0,1,.4-.9.76.76,0,0,1,.9.1,43,43,0,0,0,12.4,4.9,46.51,46.51,0,0,0,11.8,1.5c3.8,0,6.5-.5,8.3-1.4a4.65,4.65,0,0,0,2.7-4.2c0-1.4-.8-2.7-2.4-4s-4.9-2.8-9.8-4.7a61,61,0,0,1-14.2-7.2,25.92,25.92,0,0,1-7.6-8.5,21.36,21.36,0,0,1-2.3-10.2,23.47,23.47,0,0,1,3.4-12.1,24.69,24.69,0,0,1,10.5-9.2c4.7-2.4,10.6-3.5,17.7-3.5a85.8,85.8,0,0,1,12.4.9,35.16,35.16,0,0,1,8.6,2.3,1.77,1.77,0,0,1,1,.9,4.86,4.86,0,0,1,.2,1.2v16.3a1.23,1.23,0,0,1-.5,1A2.65,2.65,0,0,1,192,109.9Z"
        transform="translate(0 -3)"
        style="fill:#00c8ff"
    />
</svg>
