<svg xmlns="http://www.w3.org/2000/svg" viewBox="0 0 240 240">
    <path
        d="M42.5,3h155A42.46,42.46,0,0,1,240,45.42V194.5A42.46,42.46,0,0,1,197.58,237H42.5A42.46,42.46,0,0,1,0,194.58V45.5A42.46,42.46,0,0,1,42.42,3Z"
        transform="translate(0 -3)"
        style="fill:#002026"
    />
    <path
        d="M61.6,167.1V64.2c0-.7.3-1.1,1-1.1,1.7,0,3.8,0,6.1-.1s4.9-.1,7.6-.2,5.6-.1,8.7-.2,6.1-.1,9.1-.1c8.2,0,15,1,20.6,3.1a35.68,35.68,0,0,1,13.4,8.2,31.87,31.87,0,0,1,7.3,11.4,38.45,38.45,0,0,1,2.3,13q0,12.9-6,21.3a34.31,34.31,0,0,1-16.1,12.2,64.11,64.11,0,0,1-22.5,3.8c-2.4,0-4,0-5-.1s-2.4-.1-4.3-.1V167a1.25,1.25,0,0,1-1.06,1.4h-20C61.9,168.4,61.6,168,61.6,167.1ZM83.8,82.4v33.3c1.4.1,2.7.2,3.9.2H93a37.35,37.35,0,0,0,11.5-1.6,17.2,17.2,0,0,0,8.2-5.3c2.1-2.5,3.1-5.9,3.1-10.3a16.48,16.48,0,0,0-2.3-8.9,14.51,14.51,0,0,0-7-5.7,29.35,29.35,0,0,0-11.8-2c-2.6,0-4.9,0-6.8.1A33,33,0,0,0,83.8,82.4Z"
        transform="translate(0 -3)"
        style="fill:#00dbff"
    />
    <path
        d="M146.7,147.6V55.5c0-.9.5-1.3,1.4-1.3h19.5c1,0,1.4.4,1.4,1.3v90.2q0,3.45,1.2,4.8c.8,1,2.2,1.4,4.1,1.4a6,6,0,0,0,1.4-.1c.3-.1.8-.1,1.4-.2a.87.87,0,0,1,.5.1,1.65,1.65,0,0,1,.2,1v13.8a5.66,5.66,0,0,1-.1,1.3,1.46,1.46,0,0,1-.7.6,19.69,19.69,0,0,1-4,1,41.49,41.49,0,0,1-6.1.4,26.61,26.61,0,0,1-10.4-1.9,14,14,0,0,1-7.2-6.8C147.6,158.1,146.7,153.5,146.7,147.6Z"
        transform="translate(0 -3)"
        style="fill:#00dbff"
    />
</svg>
