<svg xmlns="http://www.w3.org/2000/svg" viewBox="0 0 240 240">
    <path
        d="M42.5,3h155A42.46,42.46,0,0,1,240,45.42V194.5A42.46,42.46,0,0,1,197.58,237H42.5A42.46,42.46,0,0,1,0,194.58V45.5A42.46,42.46,0,0,1,42.42,3Z"
        transform="translate(0 -3)"
        style="fill:#260d40"
    />
    <path
        d="M60.7,168.4H41.5c-.9,0-1.3-.5-1.3-1.4V64.5c0-1,.3-1.4,1-1.4,3.8-.1,7-.2,9.7-.2l7.7-.2c2.5-.1,5-.1,7.7-.1H75c9,0,16.6,1.3,22.7,3.8a30.59,30.59,0,0,1,14.1,11c3.3,4.7,4.9,10.6,4.9,17.6a28,28,0,0,1-2.6,12,30.37,30.37,0,0,1-7.1,9.6,33.59,33.59,0,0,1-10.5,6.5c1.1,1.4,2.6,3.5,4.5,6.4s4.1,6,6.4,9.5,4.6,7,6.9,10.6,4.4,6.8,6.3,9.8,3.3,5.4,4.3,7.1a1.59,1.59,0,0,1,.4,1.3.57.57,0,0,1-.5.62.68.68,0,0,1-.2,0H101.2a6.06,6.06,0,0,1-1.4-.2,2.83,2.83,0,0,1-.8-.7c-1.2-1.7-2.7-4-4.4-6.8s-3.6-5.9-5.6-9.3-4-6.8-6-10.1-3.7-6.3-5.2-9a9.06,9.06,0,0,0-1.8-2.1,3.64,3.64,0,0,0-2-.6H62v37.5a1.21,1.21,0,0,1-1.11,1.3Zm1.3-58H74.6a32,32,0,0,0,10.6-1.5,13.16,13.16,0,0,0,6.8-4.8,12.67,12.67,0,0,0,2.4-8c0-4.9-1.8-8.5-5.5-10.7s-8.5-3.3-14.5-3.3c-2.6,0-5,0-7.2.1s-4,.1-5.2.2Z"
        transform="translate(0 -3)"
        style="fill:#bf80ff"
    />
    <path
        d="M201.6,89.5v61c0,2.7,0,5.1.1,7.2s.2,3.9.3,5.5.3,2.9.4,3.9-.3,1.3-1.1,1.3H184a1.88,1.88,0,0,1-1.9-1.1c-.2-.8-.4-1.6-.6-2.5a10.47,10.47,0,0,1-.2-2.5,28.55,28.55,0,0,1-11.3,6.2,41.66,41.66,0,0,1-11.1,1.5,33.62,33.62,0,0,1-10.9-1.7,20.94,20.94,0,0,1-8.5-5.5,24.94,24.94,0,0,1-5.6-9.7,45.54,45.54,0,0,1-2-14.2V89.7a1.12,1.12,0,0,1,.94-1.29H153a1.12,1.12,0,0,1,1.29.94.13.13,0,0,1,0,.06v47c0,4.4,1,7.9,2.9,10.4s5.2,3.8,9.7,3.8a20,20,0,0,0,6.8-1.2,21.34,21.34,0,0,0,5.6-3.3V89.5c0-.8.5-1.1,1.4-1.1h19.8a.94.94,0,0,1,1.09.76v.34Z"
        transform="translate(0 -3)"
        style="fill:#bf80ff"
    />
</svg>
