<svg xmlns="http://www.w3.org/2000/svg" viewBox="0 0 240 240">
    <path
        d="M42.5,3h155A42.46,42.46,0,0,1,240,45.42V194.5A42.46,42.46,0,0,1,197.58,237H42.5A42.46,42.46,0,0,1,0,194.58V45.5A42.46,42.46,0,0,1,42.42,3Z"
        transform="translate(0 -3)"
        style="fill:#210027"
    />
    <path
        d="M57,167.1V64.2c0-.7.3-1.1,1-1.1,1.7,0,3.3,0,5.6-.1s4.9-.1,7.6-.2,5.6-.1,8.7-.2,6.1-.1,9.1-.1c8.2,0,15,1,20.6,3.1A35.68,35.68,0,0,1,123,73.8a31.87,31.87,0,0,1,7.3,11.4,38.45,38.45,0,0,1,2.3,13q0,12.9-6,21.3a34.31,34.31,0,0,1-16.1,12.2c-6.8,2.5-14.3,3.4-22.5,3.4-2.4,0-4,0-5-.1s-2.4-.1-4.3-.1V167a1.25,1.25,0,0,1-1.06,1.4H58.2C57.4,168.4,57,168,57,167.1ZM78.8,82.4V116c1.4.1,2.7.2,3.9.2H88a37.45,37.45,0,0,0,11.5-1.8,17.2,17.2,0,0,0,8.2-5.3c2.1-2.5,3.1-5.9,3.1-10.3a16.48,16.48,0,0,0-2.3-8.9,14.51,14.51,0,0,0-7-5.7,29.35,29.35,0,0,0-11.8-2c-2.6,0-4.9,0-6.8.1a22.46,22.46,0,0,0-4.1.1Z"
        transform="translate(0 -3)"
        style="fill:#e586ff"
    />
    <path
        d="M146.6,88.2h17.5a2.25,2.25,0,0,1,2.1,1.6,9.71,9.71,0,0,1,.6,2.5c.2,1,.4,2.1.5,3.1s.2,2.3.2,3.6a37.12,37.12,0,0,1,10.7-8.6,31,31,0,0,1,15.2-3.9,1.25,1.25,0,0,1,1.4,1.06V107.5c0,.8-.5,1.1-1.6,1.1a43.52,43.52,0,0,0-10.8,1,41.35,41.35,0,0,0-8.4,2.7,15.55,15.55,0,0,0-5.1,3.7v51c0,1-.4,1.4-1.3,1.4H147.9a1.38,1.38,0,0,1-1.59-1.13s0-.05,0-.07V111.4c0-2.4,0-4.9-.1-7.5s-.1-5.2-.2-7.8c0-2.3-.2-4.5-.4-6.8a.92.92,0,0,1,.7-1.1h0c0-.1.2-.1.3,0Z"
        transform="translate(0 -3)"
        style="fill:#e586ff"
    />
</svg>
